<?xml version="1.0" encoding="UTF-8"?> <svg xmlns="http://www.w3.org/2000/svg" width="350" height="350" viewBox="0 0 350 350" fill="none"> <path d="M93.4801 256.88H85.0601V167.54C85.0601 159.85 90.1501 148.41 104.19 148.41H148.94V156.83H104.19C93.7801 156.83 93.4801 166.44 93.4801 167.54V256.88Z" fill="#C1D100"></path> <path d="M108.39 201.61L108.37 193.19L151.11 193.07L151.28 193.08C151.43 193.09 156.03 193.31 158.72 189.81L158.99 189.49L160.73 187.64L172.63 172.84L185.97 156.32C186.19 156.07 191.35 150.13 199.22 148.82C205.86 147.71 238.71 148.22 242.44 148.29L242.3 156.71C227.98 156.47 205.06 156.39 200.61 157.13C196.06 157.89 192.74 161.4 192.38 161.79L179.19 178.13L166.98 193.3L165.26 195.13C160.17 201.57 152.32 201.56 150.86 201.49L108.39 201.61Z" fill="#C1D100"></path> <path d="M246.64 201.52H201.89V193.1H246.64C257.05 193.1 257.35 183.49 257.35 182.39V92.9299H265.77V182.39C265.77 190.08 260.67 201.52 246.64 201.52Z" fill="#C1D100"></path> <path d="M93.42 264.34H85V271.98H93.42V264.34Z" fill="#C1D100"></path> <path d="M265.78 78H257.36V85.42H265.78V78Z" fill="#C1D100"></path> </svg> 